<svg width="39" height="14" viewBox="0 0 39 14" fill="none" xmlns="http://www.w3.org/2000/svg">
<g clip-path="url(#clip0_29_56)">
<path d="M4.35889 7.57234L0 0H2.31471L5.36724 5.32708L8.42845 0H10.7432L6.36691 7.57234V13.3329H4.35889V7.57234Z" fill="#443E3B"/>
<path d="M10.7489 9.06917C10.7394 8.49072 10.8502 7.9166 11.0743 7.38314C11.2985 6.84967 11.631 6.36848 12.051 5.97001C12.9098 5.14799 14.0538 4.68979 15.2434 4.69141C16.433 4.69303 17.5758 5.15433 18.4323 5.97868C19.2653 6.82257 19.7315 7.96039 19.7299 9.14535C19.7282 10.3303 19.2589 11.4669 18.4237 12.3085C17.9983 12.7245 17.4939 13.0512 16.94 13.2694C16.3862 13.4875 15.7942 13.5926 15.199 13.5785C14.6087 13.5921 14.022 13.4837 13.4758 13.2599C12.9295 13.0361 12.4356 12.7018 12.0249 12.2781C11.1752 11.4324 10.7499 10.3628 10.7489 9.06917ZM12.7367 9.10384C12.7367 9.94473 12.9619 10.6098 13.4123 11.0991C13.8627 11.5885 14.4708 11.836 15.2366 11.8418C15.9976 11.8418 16.6057 11.5971 17.0609 11.1078C17.5161 10.6185 17.7437 9.96496 17.7437 9.14719C17.7437 8.32942 17.5161 7.67587 17.0609 7.18656C16.5767 6.7106 15.9246 6.44384 15.2453 6.44384C14.5659 6.44384 13.9138 6.7106 13.4297 7.18656C12.9687 7.68647 12.7377 8.32749 12.7367 9.10962V9.10384Z" fill="#443E3B"/>
<path d="M22.3746 4.92108H24.3204V5.6984C24.5976 5.38611 24.921 5.11811 25.2796 4.90375C25.6128 4.7499 25.9774 4.67616 26.3443 4.68847C27.2943 4.68847 28.0466 5.10313 28.6012 5.93246C28.8788 5.53572 29.251 5.21426 29.6842 4.99708C30.1173 4.7799 30.5978 4.67384 31.0822 4.68847C32.9793 4.68847 33.9274 5.8371 33.9264 8.13438V13.3358H31.9734V8.66174C31.9734 7.85553 31.877 7.2853 31.6841 6.95107C31.4912 6.61683 31.1599 6.44682 30.6902 6.44104C30.1539 6.44104 29.7633 6.64284 29.5184 7.04643C29.2734 7.45001 29.1509 8.09778 29.1509 8.98972V13.3329H27.1906V8.68775C27.1906 7.18898 26.7566 6.44008 25.8886 6.44104C25.3408 6.44104 24.9415 6.64573 24.6907 7.05509C24.44 7.46446 24.3146 8.10934 24.3146 8.98972V13.3329H22.3746V4.92108Z" fill="#443E3B"/>
<path d="M36.0835 2.7813C36.0876 2.39939 36.2413 2.03428 36.5118 1.76422C36.7822 1.49415 37.1477 1.3406 37.5302 1.33647C37.7233 1.33411 37.9149 1.37136 38.0931 1.44591C38.2712 1.52047 38.4322 1.63075 38.566 1.76992C38.7056 1.90091 38.8163 2.05954 38.891 2.23568C38.9657 2.41181 39.0029 2.60158 39 2.79285C39.0024 2.98577 38.9651 3.17711 38.8904 3.35505C38.8158 3.53299 38.7053 3.69374 38.566 3.82735C38.4345 3.9668 38.2755 4.07737 38.0989 4.152C37.9223 4.22662 37.732 4.26368 37.5403 4.2608C37.3474 4.2608 37.1563 4.22269 36.9782 4.14865C36.8001 4.07461 36.6384 3.96611 36.5025 3.82939C36.3665 3.69268 36.259 3.53045 36.1861 3.35206C36.1132 3.17367 36.0763 2.98264 36.0777 2.78997L36.0835 2.7813Z" fill="#FF5B00"/>
<path d="M38.5139 5.16382H36.5681V13.5756H38.5139V5.16382Z" fill="#443E3B"/>
</g>
<defs>
<clipPath id="clip0_29_56">
<rect width="39" height="13.5843" fill="white"/>
</clipPath>
</defs>
</svg>
